<svg version="1.1" xmlns="http://www.w3.org/2000/svg" xmlns:xlink="http://www.w3.org/1999/xlink" x="0px" y="0px"
	 viewBox="-165 372.4 157.9 49.2" style="enable-background:new -165 372.4 157.9 49.2;" xml:space="preserve" width="158" height="50">
<style type="text/css">
	.st0{fill:#333333;}
	.st1{font-family:'PrentonRPPro-Regular';}
	.st2{font-size:38.3244px;}
	.st3{fill:#0B76BD;}
	.st4{fill:#00A9FC;}
	.st5{fill:#723596;}
	.st6{fill:#D33894;}
	.st7{fill:#D51620;}
	.st8{fill:#FF7A28;}
	.st9{fill:#FCC233;}
	.st10{fill:#A0C12D;}
	.st11{fill:#388C6D;}
</style>
<g id="Calque_1">
	<text transform="matrix(1 0 0 1 -98.6223 410.2747)" class="st0 st1 st2">Users</text>
</g>
<g id="Calque_2">
</g>
<g id="Calque_3">
	<g>
		<g>
			<circle class="st3" cx="-140.4" cy="411.4" r="2.5"/>
			<path class="st3" d="M-147.1,420.6c0.4-3.3,3.3-5.8,6.7-5.8c3.4,0,6.2,2.5,6.7,5.8C-138,421.8-142.6,421.9-147.1,420.6z"/>
		</g>
		<g>
			<circle class="st4" cx="-149.7" cy="408" r="2.5"/>
			<path class="st4" d="M-150.5,419.4c-4.1-1.8-7.6-4.8-10.2-8.6c2.5-2.2,6.3-2.4,8.9-0.2C-149.2,412.8-148.7,416.6-150.5,419.4z"/>
		</g>
		<g>
			<circle class="st5" cx="-131.1" cy="408" r="2.5"/>
			<path class="st5" d="M-130.3,419.4c-1.8-2.8-1.2-6.6,1.4-8.8c2.6-2.2,6.4-2.1,8.9,0.2C-122.6,414.5-126.1,417.5-130.3,419.4z"/>
		</g>
		<g>
			<circle class="st6" cx="-126.1" cy="399.5" r="2.5"/>
			<path class="st6" d="M-118.2,407.6c-3.2-1-5.2-4.2-4.6-7.6c0.6-3.4,3.6-5.7,6.9-5.6C-115.4,398.9-116.2,403.5-118.2,407.6z"/>
		</g>
		<g>
			<circle class="st7" cx="-127.8" cy="389.7" r="2.5"/>
			<path class="st7" d="M-124.9,388c-1.7-3-0.9-6.7,1.7-8.7c3.2,3.1,5.6,7.1,6.7,11.6C-119.6,392.1-123.2,391-124.9,388z"/>
		</g>
		<g>
			<circle class="st8" cx="-135.4" cy="383.3" r="2.5"/>
			<path class="st8" d="M-134.3,380.1c-3.2-1.2-5-4.5-4.3-7.8c4.5,0.3,8.8,1.9,12.6,4.6C-127.5,379.9-131.1,381.3-134.3,380.1z"/>
		</g>
		<g>
			<circle class="st9" cx="-145.3" cy="383.3" r="2.5"/>
			<path class="st9" d="M-146.5,380.1c-3.2,1.2-6.7-0.3-8.3-3.2c3.6-2.6,8-4.2,12.6-4.6C-141.5,375.6-143.3,379-146.5,380.1z"/>
		</g>
		<g>
			<circle class="st10" cx="-152.9" cy="389.7" r="2.5"/>
			<path class="st10" d="M-164.2,390.9c1.1-4.3,3.4-8.4,6.7-11.6c2.6,2,3.4,5.7,1.7,8.7C-157.6,391-161.2,392.1-164.2,390.9z"/>
		</g>
		<g>
			<circle class="st11" cx="-154.6" cy="399.4" r="2.5"/>
			<path class="st11" d="M-162.5,407.6c-1.9-4-2.8-8.6-2.3-13.2c3.3-0.1,6.3,2.2,6.9,5.6C-157.4,403.4-159.4,406.6-162.5,407.6z"/>
		</g>
	</g>
</g>
</svg>
